<?xml version="1.0" encoding="UTF-8" standalone="no"?>
<svg
   xmlns:dc="http://purl.org/dc/elements/1.1/"
   xmlns:cc="http://creativecommons.org/ns#"
   xmlns:rdf="http://www.w3.org/1999/02/22-rdf-syntax-ns#"
   xmlns:svg="http://www.w3.org/2000/svg"
   xmlns="http://www.w3.org/2000/svg"
   xmlns:sodipodi="http://sodipodi.sourceforge.net/DTD/sodipodi-0.dtd"
   xmlns:inkscape="http://www.inkscape.org/namespaces/inkscape"
   t="1616214500961"
   class="icon"
   viewBox="0 0 1024 1024"
   version="1.1"
   p-id="15439"
   width="200"
   height="200"
   id="svg1267"
   sodipodi:docname="arrows.svg"
   inkscape:version="1.0.2-2 (e86c870879, 2021-01-15)">
  <metadata
     id="metadata1271">
    <rdf:RDF>
      <cc:Work
         rdf:about="">
        <dc:format>image/svg+xml</dc:format>
        <dc:type
           rdf:resource="http://purl.org/dc/dcmitype/StillImage" />
      </cc:Work>
    </rdf:RDF>
  </metadata>
  <sodipodi:namedview
     pagecolor="#ffffff"
     bordercolor="#666666"
     borderopacity="1"
     objecttolerance="10"
     gridtolerance="10"
     guidetolerance="10"
     inkscape:pageopacity="0"
     inkscape:pageshadow="2"
     inkscape:window-width="2560"
     inkscape:window-height="1361"
     id="namedview1269"
     showgrid="false"
     inkscape:zoom="5.04"
     inkscape:cx="100"
     inkscape:cy="100"
     inkscape:window-x="-9"
     inkscape:window-y="145"
     inkscape:window-maximized="1"
     inkscape:current-layer="svg1267" />
  <defs
     id="defs1263">
    <style
       type="text/css"
       id="style1261" />
  </defs>
  <path
     d="M704.401495 851.540021l-158.390143 158.390144c-18.74578 18.74578-49.135424 18.74578-67.881205 0l-158.390144-158.390144c-30.237646-30.237646-8.821897-81.94104 33.941602-81.93904h102.322801L456.002406 567.993344H254.396769v102.322801c0 42.763499-51.701394 64.179248-81.94104 33.941602L14.065585 545.867603c-18.74578-18.74578-18.74578-49.137424 0-67.881204L172.455729 319.596255c30.237646-30.237646 81.94104-8.821897 81.94104 33.941602V455.994656H456.002406V254.389019h-102.458799c-42.763499 0-64.179248-51.701394-33.941602-81.94104l158.390144-158.390144c18.74578-18.74578 49.135424-18.74578 67.881204 0l158.390144 158.390144c30.237646 30.237646 8.821897 81.94104-33.941602 81.94104h-102.322801V455.994656h201.605637v-102.322801c0-42.763499 51.701394-64.179248 81.93904-33.941602l158.390144 158.390144c18.74578 18.74578 18.74578 49.137424 0 67.881205L851.543771 704.391745c-30.237646 30.237646-81.94104 8.821897-81.93904-33.941602V567.993344H568.001094v201.605637h102.458799c42.763499 0 64.179248 51.701394 33.941602 81.94104z"
     fill="#000000"
     p-id="15440"
     id="path1265"
     style="stroke:#ffffff;stroke-opacity:0.99612403;stroke-width:51.2;stroke-miterlimit:4;stroke-dasharray:none;stroke-linejoin:round;stroke-linecap:round;paint-order:normal" />
</svg>
