<?xml version="1.0" standalone="no"?><!DOCTYPE svg PUBLIC "-//W3C//DTD SVG 1.1//EN" "http://www.w3.org/Graphics/SVG/1.1/DTD/svg11.dtd"><svg t="1603521175230" class="icon" viewBox="0 0 1024 1024" version="1.1" xmlns="http://www.w3.org/2000/svg" p-id="14885" xmlns:xlink="http://www.w3.org/1999/xlink" width="200" height="200"><defs><style type="text/css"></style></defs><path d="M21.657646 494.328718C-1.339038 503.527392-7.338173 533.323095 10.059318 550.720587l109.584198 109.584198 146.378893-48.792965-48.792965 146.378893 255.963091 255.96309c17.597462 17.597462 47.193195 11.398356 56.391868-11.598327l196.171712-487.329728-216.768742-216.768742-487.329727 196.171712zM1014.514477 54.592128L969.320993 9.398645c-12.398212-12.598183-32.795271-12.598183-45.193483 0L719.557009 213.769175l-80.78835-80.788351c-8.398789-8.59876-22.796713-5.999135-27.795992 4.999279l-54.392157 117.183103 212.169406 212.169405 117.183102-54.392157c10.798443-4.999279 13.398068-19.397203 4.999279-27.795992l-80.78835-80.78835L1014.514477 99.785611c12.598183-12.398212 12.598183-32.5953 0-45.193483z" fill="#2c2c2c" p-id="14886"></path></svg>