<?xml version="1.0" encoding="UTF-8" standalone="no"?>
<svg
   xmlns:dc="http://purl.org/dc/elements/1.1/"
   xmlns:cc="http://creativecommons.org/ns#"
   xmlns:rdf="http://www.w3.org/1999/02/22-rdf-syntax-ns#"
   xmlns:svg="http://www.w3.org/2000/svg"
   xmlns="http://www.w3.org/2000/svg"
   xmlns:sodipodi="http://sodipodi.sourceforge.net/DTD/sodipodi-0.dtd"
   xmlns:inkscape="http://www.inkscape.org/namespaces/inkscape"
   t="1603521175230"
   class="icon"
   viewBox="0 0 1024 1024"
   version="1.1"
   p-id="14885"
   width="200"
   height="200"
   id="svg2045"
   sodipodi:docname="broom.svg"
   inkscape:version="1.0.2-2 (e86c870879, 2021-01-15)">
  <metadata
     id="metadata2049">
    <rdf:RDF>
      <cc:Work
         rdf:about="">
        <dc:format>image/svg+xml</dc:format>
        <dc:type
           rdf:resource="http://purl.org/dc/dcmitype/StillImage" />
      </cc:Work>
    </rdf:RDF>
  </metadata>
  <sodipodi:namedview
     pagecolor="#ffffff"
     bordercolor="#666666"
     borderopacity="1"
     objecttolerance="10"
     gridtolerance="10"
     guidetolerance="10"
     inkscape:pageopacity="0"
     inkscape:pageshadow="2"
     inkscape:window-width="2560"
     inkscape:window-height="1361"
     id="namedview2047"
     showgrid="false"
     inkscape:zoom="5.04"
     inkscape:cx="100"
     inkscape:cy="100"
     inkscape:window-x="-9"
     inkscape:window-y="145"
     inkscape:window-maximized="1"
     inkscape:current-layer="svg2045"
     inkscape:document-rotation="0" />
  <defs
     id="defs2041">
    <style
       type="text/css"
       id="style2039" />
  </defs>
  <path
     d="M21.657646 494.328718C-1.339038 503.527392-7.338173 533.323095 10.059318 550.720587l109.584198 109.584198 146.378893-48.792965-48.792965 146.378893 255.963091 255.96309c17.597462 17.597462 47.193195 11.398356 56.391868-11.598327l196.171712-487.329728-216.768742-216.768742-487.329727 196.171712zM1014.514477 54.592128L969.320993 9.398645c-12.398212-12.598183-32.795271-12.598183-45.193483 0L719.557009 213.769175l-80.78835-80.788351c-8.398789-8.59876-22.796713-5.999135-27.795992 4.999279l-54.392157 117.183103 212.169406 212.169405 117.183102-54.392157c10.798443-4.999279 13.398068-19.397203 4.999279-27.795992l-80.78835-80.78835L1014.514477 99.785611c12.598183-12.398212 12.598183-32.5953 0-45.193483z"
     fill="#2c2c2c"
     p-id="14886"
     id="path2043"
     style="fill:#000000;fill-opacity:1;stroke:#ffffff;stroke-opacity:1;stroke-width:51.2;stroke-miterlimit:4;stroke-dasharray:none;stroke-linejoin:round;paint-order:stroke fill markers" />
  <path
     style="fill:#000000;fill-opacity:0.995726;stroke:#ffffff;stroke-width:7.55905512;stroke-linecap:round;stroke-linejoin:round;paint-order:stroke fill markers;stroke-miterlimit:4;stroke-dasharray:none"
     d="m 94.992579,199.51278 c -0.407851,-0.15616 -1.122137,-0.55042 -1.587301,-0.87613 -0.465165,-0.32571 -12.095369,-11.84838 -25.844901,-25.60593 l -24.999145,-25.01373 4.731726,-14.19986 c 2.602449,-7.80992 4.672729,-14.25885 4.600619,-14.33096 -0.07211,-0.0721 -6.52221,1.99856 -14.333559,4.60148 l -14.202453,4.7326 -11.055046,-11.08671 C 3.5928839,108.99895 1.1471433,106.43635 0.77456913,105.65476 0.42683409,104.92528 0.28264671,104.2303 0.22981222,103.02905 0.16473954,101.54956 0.21340655,101.27809 0.74557859,100.15207 1.3816964,98.806111 2.4231196,97.617708 3.4318655,97.086653 3.7814427,96.902619 25.496032,88.117665 51.686508,77.564532 l 47.619048,-19.187512 21.158384,21.136194 21.15838,21.136196 -1.14609,2.80029 c -0.63034,1.54017 -9.24704,22.93423 -19.14821,47.54236 -9.90117,24.60814 -18.13302,44.99781 -18.29301,45.31039 -0.49538,0.96784 -1.88082,2.32005 -2.92784,2.8576 -1.231593,0.63231 -3.903172,0.81656 -5.114591,0.35273 z"
     id="path857"
     transform="scale(5.12)" />
  <path
     style="fill:#000000;fill-opacity:0.995726;stroke:#ffffff;stroke-width:7.55905512;stroke-linecap:round;stroke-linejoin:round;paint-order:stroke fill markers;stroke-miterlimit:4;stroke-dasharray:none"
     d="M 129.48453,70.456756 C 116.60419,57.575968 108.91057,49.74144 108.97717,49.573819 c 0.0586,-0.147545 2.48463,-5.402192 5.39111,-11.676994 3.78133,-8.163527 5.4502,-11.561164 5.86701,-11.944625 0.81161,-0.74667 1.95975,-1.028242 3.02412,-0.741637 0.7317,0.197026 1.89056,1.273875 9.07738,8.434989 l 8.23861,8.209127 20.4365,-20.400332 c 22.73009,-22.6898464 21.15778,-21.29094831 23.93014,-21.29094831 2.46043,0 2.93639,0.33526935 8.72791,6.14787071 5.93054,5.9521246 6.03429,6.1047276 6.02903,8.8673016 -0.003,1.480933 -0.0826,1.938106 -0.46748,2.678572 -0.32231,0.620099 -6.66999,7.10644 -20.77878,21.232665 l -20.31469,20.339807 7.74517,7.735589 c 4.25985,4.254574 8.00915,8.130361 8.33178,8.612859 0.42646,0.637774 0.58661,1.113895 0.58661,1.744016 0,1.005592 -0.57052,2.247623 -1.22865,2.674814 -0.4668,0.302996 -23.19345,10.876708 -23.37488,10.875305 -0.0548,-3.96e-4 -9.37585,-9.277373 -20.71353,-20.615442 z"
     id="path859"
     transform="scale(5.12)" />
</svg>
