<?xml version="1.0" standalone="no"?><!DOCTYPE svg PUBLIC "-//W3C//DTD SVG 1.1//EN" "http://www.w3.org/Graphics/SVG/1.1/DTD/svg11.dtd"><svg t="1616205202956" class="icon" viewBox="0 0 1024 1024" version="1.1" xmlns="http://www.w3.org/2000/svg" p-id="14882" xmlns:xlink="http://www.w3.org/1999/xlink" width="200" height="200"><defs><style type="text/css"></style></defs><path d="M1000 768c13.2 0 24 10.8 24 24v80c0 13.2-10.8 24-24 24H24c-13.2 0-24-10.8-24-24V152c0-13.2 10.8-24 24-24h80c13.2 0 24 10.8 24 24v616h872zM912 192H688c-42.8 0-64.2 51.8-34 82l65.8 65.8-144 145.8-111.2-111.2c-9.4-9.4-24.4-9.4-33.8 0L192.8 610c-9.4 9.2-9.6 24.4-0.4 33.8l57 58.8c9.4 9.6 24.8 9.8 34.2 0.2l164.2-164.2 111 111c9.4 9.4 24.6 9.4 34 0l218.4-218.4L878 498c30.2 30.2 82 8.8 82-34V240c0-26.6-21.4-48-48-48z" fill="#000000" p-id="14883" data-spm-anchor-id="a313x.7781069.0.i0" class=""></path></svg>