<?xml version="1.0" standalone="no"?><!DOCTYPE svg PUBLIC "-//W3C//DTD SVG 1.1//EN" "http://www.w3.org/Graphics/SVG/1.1/DTD/svg11.dtd"><svg t="1587067185096" class="icon" viewBox="0 0 1024 1024" version="1.1" xmlns="http://www.w3.org/2000/svg" p-id="15935" xmlns:xlink="http://www.w3.org/1999/xlink" width="200" height="200"><defs><style type="text/css"></style></defs><path d="M0 872V152c0-13.2 10.8-24 24-24h80c13.2 0 24 10.8 24 24v303.8L471 142.8C512.2 108.6 576 137.2 576 192v263.8L919 142.8C960.2 108.6 1024 137.2 1024 192v640c0 54.8-63.8 83.4-105 49.2L576 570.6V832c0 54.8-63.8 83.4-105 49.2L128 570.6V872c0 13.2-10.8 24-24 24H24c-13.2 0-24-10.8-24-24z" fill="" p-id="15936"></path></svg>