<?xml version="1.0" standalone="no"?><!DOCTYPE svg PUBLIC "-//W3C//DTD SVG 1.1//EN" "http://www.w3.org/Graphics/SVG/1.1/DTD/svg11.dtd"><svg t="1587067178494" class="icon" viewBox="0 0 1024 1024" version="1.1" xmlns="http://www.w3.org/2000/svg" p-id="15811" xmlns:xlink="http://www.w3.org/1999/xlink" width="200" height="200"><defs><style type="text/css"></style></defs><path d="M1024 152v720c0 13.2-10.8 24-24 24h-80c-13.2 0-24-10.8-24-24V568.2L553 881.2c-41.2 34.4-105 5.6-105-49.2V568.2L105 881.2C63.8 915.6 0 886.8 0 832V192c0-54.8 63.8-83.4 105-49.2L448 453.6V192c0-54.8 63.8-83.4 105-49.2L896 453.6V152c0-13.2 10.8-24 24-24h80c13.2 0 24 10.8 24 24z" fill="" p-id="15812"></path></svg>