<?xml version="1.0" encoding="UTF-8" standalone="no"?>
<svg
   xmlns:dc="http://purl.org/dc/elements/1.1/"
   xmlns:cc="http://creativecommons.org/ns#"
   xmlns:rdf="http://www.w3.org/1999/02/22-rdf-syntax-ns#"
   xmlns:svg="http://www.w3.org/2000/svg"
   xmlns="http://www.w3.org/2000/svg"
   xmlns:sodipodi="http://sodipodi.sourceforge.net/DTD/sodipodi-0.dtd"
   xmlns:inkscape="http://www.inkscape.org/namespaces/inkscape"
   t="1587201369033"
   class="icon"
   viewBox="0 0 1024 1024"
   version="1.1"
   p-id="15337"
   width="200"
   height="200"
   id="svg6820"
   sodipodi:docname="file.svg"
   inkscape:version="1.0.2-2 (e86c870879, 2021-01-15)">
  <metadata
     id="metadata6824">
    <rdf:RDF>
      <cc:Work
         rdf:about="">
        <dc:format>image/svg+xml</dc:format>
        <dc:type
           rdf:resource="http://purl.org/dc/dcmitype/StillImage" />
      </cc:Work>
    </rdf:RDF>
  </metadata>
  <sodipodi:namedview
     pagecolor="#ffffff"
     bordercolor="#666666"
     borderopacity="1"
     objecttolerance="10"
     gridtolerance="10"
     guidetolerance="10"
     inkscape:pageopacity="0"
     inkscape:pageshadow="2"
     inkscape:window-width="2560"
     inkscape:window-height="1361"
     id="namedview6822"
     showgrid="false"
     inkscape:zoom="3.025"
     inkscape:cx="100"
     inkscape:cy="97.024793"
     inkscape:window-x="-9"
     inkscape:window-y="145"
     inkscape:window-maximized="1"
     inkscape:current-layer="svg6820" />
  <defs
     id="defs6816">
    <style
       type="text/css"
       id="style6814" />
  </defs>
  <path
     d="M 576,302.34711 V 57.547107 H 176 c -26.6,0 -48,19.26 -48,43.200003 v 835.2 c 0,23.94 21.4,43.2 48,43.2 h 672 c 26.6,0 48,-19.26 48,-43.2 v -590.4 H 624 c -26.4,0 -48,-19.44 -48,-43.2 z m 128,424.8 c 0,11.88 -10.8,21.6 -24,21.6 H 344 c -13.2,0 -24,-9.72 -24,-21.6 v -14.4 c 0,-11.88 10.8,-21.6 24,-21.6 h 336 c 13.2,0 24,9.72 24,21.6 z m 0,-115.2 c 0,11.88 -10.8,21.6 -24,21.6 H 344 c -13.2,0 -24,-9.72 -24,-21.6 v -14.4 c 0,-11.88 10.8,-21.6 24,-21.6 h 336 c 13.2,0 24,9.72 24,21.6 z m 0,-129.6 v 14.4 c 0,11.88 -10.8,21.6 -24,21.6 H 344 c -13.2,0 -24,-9.72 -24,-21.6 v -14.4 c 0,-11.88 10.8,-21.6 24,-21.6 h 336 c 13.2,0 24,9.72 24,21.6 z m 192,-205.38 v 10.98 H 640 V 57.547107 h 12.2 c 12.8,0 25,4.5 34,12.6 L 882,246.54711 c 9,8.1 14,19.08 14,30.42 z"
     fill=""
     p-id="15338"
     id="path6818"
     style="stroke-width:51.2;stroke:#ffffff;stroke-opacity:1;stroke-miterlimit:4;stroke-dasharray:none;stroke-linecap:round;paint-order:stroke fill markers;stroke-linejoin:round" />
  <path
     style="fill:#000000;fill-opacity:0.995726;stroke:#ffffff;stroke-width:3.30579;stroke-linecap:round;stroke-linejoin:round;stroke-miterlimit:4;stroke-dasharray:none;stroke-opacity:1;paint-order:stroke fill markers"
     d="m 64.726793,100.34396 c -1.643881,-1.002331 -2.170324,-2.343249 -2.027825,-5.165129 0.135635,-2.685973 0.801737,-3.779712 2.827604,-4.642923 1.57969,-0.673097 67.367168,-0.673097 68.946858,0 2.02587,0.863211 2.69197,1.95695 2.8276,4.642923 0.1425,2.82188 -0.38394,4.162798 -2.02782,5.165129 -1.03167,0.62905 -1.92038,0.6453 -35.27321,0.6453 -33.352832,0 -34.241541,-0.0162 -35.273207,-0.6453 z"
     id="path7387"
     transform="scale(5.12)" />
  <path
     style="fill:#000000;fill-opacity:0.995726;stroke:#ffffff;stroke-width:3.30579;stroke-linecap:round;stroke-linejoin:round;stroke-miterlimit:4;stroke-dasharray:none;stroke-opacity:1;paint-order:stroke fill markers"
     d="m 64.726793,122.8233 c -1.643881,-1.00233 -2.170324,-2.34325 -2.027825,-5.16513 0.135635,-2.68597 0.801737,-3.77971 2.827604,-4.64292 1.57969,-0.6731 67.367168,-0.6731 68.946858,0 2.02587,0.86321 2.69197,1.95695 2.8276,4.64292 0.1425,2.82188 -0.38394,4.1628 -2.02782,5.16513 -1.03167,0.62904 -1.92038,0.6453 -35.27321,0.6453 -33.352832,0 -34.241541,-0.0162 -35.273207,-0.6453 z"
     id="path7389"
     transform="scale(5.12)" />
  <path
     style="fill:#000000;fill-opacity:0.995726;stroke:#ffffff;stroke-width:3.30579;stroke-linecap:round;stroke-linejoin:round;stroke-miterlimit:4;stroke-dasharray:none;stroke-opacity:1;paint-order:stroke fill markers"
     d="m 64.726793,145.30264 c -1.644867,-1.00293 -2.170343,-2.34288 -2.027569,-5.17021 0.10777,-2.13415 0.234366,-2.53215 1.089261,-3.42447 0.532026,-0.55532 1.496437,-1.15665 2.143136,-1.33631 1.599475,-0.44433 66.537279,-0.44433 68.136759,0 0.6467,0.17966 1.61111,0.78099 2.14313,1.33631 0.8549,0.89232 0.98149,1.29032 1.08927,3.42447 0.14277,2.82733 -0.38271,4.16728 -2.02757,5.17021 -1.03167,0.62904 -1.92038,0.6453 -35.27321,0.6453 -33.352832,0 -34.241541,-0.0163 -35.273207,-0.6453 z"
     id="path7395"
     transform="scale(5.12)" />
</svg>
