<?xml version="1.0" standalone="no"?><!DOCTYPE svg PUBLIC "-//W3C//DTD SVG 1.1//EN" "http://www.w3.org/Graphics/SVG/1.1/DTD/svg11.dtd"><svg t="1587201369033" class="icon" viewBox="0 0 1024 1024" version="1.1" xmlns="http://www.w3.org/2000/svg" p-id="15337" xmlns:xlink="http://www.w3.org/1999/xlink" width="200" height="200"><defs><style type="text/css"></style></defs><path d="M576 272V0H176C149.4 0 128 21.4 128 48v928c0 26.6 21.4 48 48 48h672c26.6 0 48-21.4 48-48V320H624c-26.4 0-48-21.6-48-48z m128 472c0 13.2-10.8 24-24 24H344c-13.2 0-24-10.8-24-24v-16c0-13.2 10.8-24 24-24h336c13.2 0 24 10.8 24 24v16z m0-128c0 13.2-10.8 24-24 24H344c-13.2 0-24-10.8-24-24v-16c0-13.2 10.8-24 24-24h336c13.2 0 24 10.8 24 24v16z m0-144v16c0 13.2-10.8 24-24 24H344c-13.2 0-24-10.8-24-24v-16c0-13.2 10.8-24 24-24h336c13.2 0 24 10.8 24 24z m192-228.2v12.2H640V0h12.2c12.8 0 25 5 34 14l195.8 196c9 9 14 21.2 14 33.8z" fill="" p-id="15338"></path></svg>