<?xml version="1.0" standalone="no"?><!DOCTYPE svg PUBLIC "-//W3C//DTD SVG 1.1//EN" "http://www.w3.org/Graphics/SVG/1.1/DTD/svg11.dtd"><svg t="1588852462904" class="icon" viewBox="0 0 1024 1024" version="1.1" xmlns="http://www.w3.org/2000/svg" p-id="14841" xmlns:xlink="http://www.w3.org/1999/xlink" width="200" height="200"><defs><style type="text/css"></style></defs><path d="M689 320C660 141.4 591.6 16 512 16s-148 125.4-177 304h354zM320 512c0 44.4 2.4 87 6.6 128h370.6c4.2-41 6.6-83.6 6.6-128s-2.4-87-6.6-128H326.6c-4.2 41-6.6 83.6-6.6 128z m649.4-192c-57.2-135.8-173-240.8-316-283.2 48.8 67.6 82.4 169.4 100 283.2h216zM370.4 36.8C227.6 79.2 111.6 184.2 54.6 320h216c17.4-113.8 51-215.6 99.8-283.2zM990.8 384H761.4c4.2 42 6.6 85 6.6 128s-2.4 86-6.6 128h229.2c11-41 17.2-83.6 17.2-128s-6.2-87-17-128zM256 512c0-43 2.4-86 6.6-128H33.2C22.4 425 16 467.6 16 512s6.4 87 17.2 128h229.2c-4-42-6.4-85-6.4-128z m79 192c29 178.6 97.4 304 177 304s148-125.4 177-304h-354z m318.6 283.2c142.8-42.4 258.8-147.4 316-283.2h-216c-17.6 113.8-51.2 215.6-100 283.2zM54.6 704c57.2 135.8 173 240.8 316 283.2-48.8-67.6-82.4-169.4-100-283.2h-216z" fill="" p-id="14842"></path></svg>