<?xml version="1.0" encoding="UTF-8" standalone="no"?>
<svg
   xmlns:dc="http://purl.org/dc/elements/1.1/"
   xmlns:cc="http://creativecommons.org/ns#"
   xmlns:rdf="http://www.w3.org/1999/02/22-rdf-syntax-ns#"
   xmlns:svg="http://www.w3.org/2000/svg"
   xmlns="http://www.w3.org/2000/svg"
   xmlns:sodipodi="http://sodipodi.sourceforge.net/DTD/sodipodi-0.dtd"
   xmlns:inkscape="http://www.inkscape.org/namespaces/inkscape"
   t="1587067005846"
   class="icon"
   viewBox="0 0 1024 1024"
   version="1.1"
   p-id="15439"
   width="200"
   height="200"
   id="svg875"
   sodipodi:docname="pause.svg"
   inkscape:version="1.0.2-2 (e86c870879, 2021-01-15)">
  <metadata
     id="metadata879">
    <rdf:RDF>
      <cc:Work
         rdf:about="">
        <dc:format>image/svg+xml</dc:format>
        <dc:type
           rdf:resource="http://purl.org/dc/dcmitype/StillImage" />
      </cc:Work>
    </rdf:RDF>
  </metadata>
  <sodipodi:namedview
     pagecolor="#ffffff"
     bordercolor="#666666"
     borderopacity="1"
     objecttolerance="10"
     gridtolerance="10"
     guidetolerance="10"
     inkscape:pageopacity="0"
     inkscape:pageshadow="2"
     inkscape:window-width="2560"
     inkscape:window-height="1361"
     id="namedview877"
     showgrid="false"
     inkscape:zoom="5.04"
     inkscape:cx="100"
     inkscape:cy="100"
     inkscape:window-x="-9"
     inkscape:window-y="145"
     inkscape:window-maximized="1"
     inkscape:current-layer="svg875" />
  <defs
     id="defs871">
    <style
       type="text/css"
       id="style869" />
  </defs>
  <path
     d="M352 958H160c-53 0-96-43-96-96V158c0-53 43-96 96-96h192c53 0 96 43 96 96v704c0 53-43 96-96 96z m608-96V158c0-53-43-96-96-96h-192c-53 0-96 43-96 96v704c0 53 43 96 96 96h192c53 0 96-43 96-96z"
     fill=""
     p-id="15440"
     id="path873"
     style="stroke:#ffffff;stroke-opacity:1;stroke-width:51.2;stroke-miterlimit:4;stroke-dasharray:none;stroke-linecap:round;paint-order:normal;stroke-linejoin:round" />
</svg>
