<?xml version="1.0" standalone="no"?><!DOCTYPE svg PUBLIC "-//W3C//DTD SVG 1.1//EN" "http://www.w3.org/Graphics/SVG/1.1/DTD/svg11.dtd"><svg t="1587067005846" class="icon" viewBox="0 0 1024 1024" version="1.1" xmlns="http://www.w3.org/2000/svg" p-id="15439" xmlns:xlink="http://www.w3.org/1999/xlink" width="200" height="200"><defs><style type="text/css"></style></defs><path d="M352 958H160c-53 0-96-43-96-96V158c0-53 43-96 96-96h192c53 0 96 43 96 96v704c0 53-43 96-96 96z m608-96V158c0-53-43-96-96-96h-192c-53 0-96 43-96 96v704c0 53 43 96 96 96h192c53 0 96-43 96-96z" fill="" p-id="15440"></path></svg>