<?xml version="1.0" encoding="UTF-8" standalone="no"?>
<svg
   xmlns:dc="http://purl.org/dc/elements/1.1/"
   xmlns:cc="http://creativecommons.org/ns#"
   xmlns:rdf="http://www.w3.org/1999/02/22-rdf-syntax-ns#"
   xmlns:svg="http://www.w3.org/2000/svg"
   xmlns="http://www.w3.org/2000/svg"
   xmlns:sodipodi="http://sodipodi.sourceforge.net/DTD/sodipodi-0.dtd"
   xmlns:inkscape="http://www.inkscape.org/namespaces/inkscape"
   t="1594024004573"
   class="icon"
   viewBox="0 0 1024 1024"
   version="1.1"
   p-id="1123"
   width="200"
   height="200"
   id="svg5618"
   sodipodi:docname="pushpin.svg"
   inkscape:version="1.0.2-2 (e86c870879, 2021-01-15)">
  <metadata
     id="metadata5622">
    <rdf:RDF>
      <cc:Work
         rdf:about="">
        <dc:format>image/svg+xml</dc:format>
        <dc:type
           rdf:resource="http://purl.org/dc/dcmitype/StillImage" />
      </cc:Work>
    </rdf:RDF>
  </metadata>
  <sodipodi:namedview
     pagecolor="#ffffff"
     bordercolor="#666666"
     borderopacity="1"
     objecttolerance="10"
     gridtolerance="10"
     guidetolerance="10"
     inkscape:pageopacity="0"
     inkscape:pageshadow="2"
     inkscape:window-width="2560"
     inkscape:window-height="1361"
     id="namedview5620"
     showgrid="false"
     inkscape:zoom="3.025"
     inkscape:cx="100"
     inkscape:cy="110.24793"
     inkscape:window-x="-9"
     inkscape:window-y="145"
     inkscape:window-maximized="1"
     inkscape:current-layer="svg5618" />
  <defs
     id="defs5614">
    <style
       type="text/css"
       id="style5612" />
  </defs>
  <path
     d="M 565.65512,29.222259 993.88721,457.45368 922.48161,528.80875 886.80396,493.13121 672.73839,707.19645 637.06078,885.63462 565.65512,956.98966 351.58954,742.87399 101.79589,992.66726 30.440699,921.31216 280.23433,671.5189 66.118299,457.45368 137.47349,386.04813 315.9624,350.37058 530.028,136.30534 494.3504,100.62779 565.7056,29.222259 Z M 601.3832,207.66042 365.66882,443.32396 223.2612,471.83571 551.27308,799.84704 579.73441,657.43966 815.44878,421.77614 Z"
     p-id="1124"
     id="path5616"
     style="stroke:#ffffff;stroke-width:60.556;stroke-linecap:round;stroke-linejoin:round;stroke-miterlimit:4;stroke-dasharray:none;stroke-opacity:1;paint-order:stroke fill markers" />
  <path
     style="fill:#000000;fill-opacity:0.995726;stroke:#ffffff;stroke-width:3.30579;stroke-linecap:round;stroke-linejoin:round;stroke-miterlimit:4;stroke-dasharray:none;stroke-opacity:1;paint-order:stroke fill markers"
     d="M 75.782545,123.88348 44.127074,92.224962 57.764004,89.502043 71.400933,86.779127 94.379084,63.802734 117.35724,40.826342 l 20.82457,20.826548 20.82459,20.826548 -23.01367,23.057802 -23.01367,23.0578 -2.53408,12.89256 c -1.39375,7.09091 -2.64048,13.15398 -2.77052,13.47348 -0.18844,0.46299 -6.66281,-5.84607 -31.891915,-31.0776 z"
     id="path6213"
     transform="scale(5.12)" />
</svg>
