<?xml version="1.0" encoding="UTF-8" standalone="no"?>
<svg
   xmlns:dc="http://purl.org/dc/elements/1.1/"
   xmlns:cc="http://creativecommons.org/ns#"
   xmlns:rdf="http://www.w3.org/1999/02/22-rdf-syntax-ns#"
   xmlns:svg="http://www.w3.org/2000/svg"
   xmlns="http://www.w3.org/2000/svg"
   xmlns:sodipodi="http://sodipodi.sourceforge.net/DTD/sodipodi-0.dtd"
   xmlns:inkscape="http://www.inkscape.org/namespaces/inkscape"
   t="1587201182040"
   class="icon"
   viewBox="0 0 1280 1280"
   version="1.1"
   p-id="14841"
   width="250"
   height="250"
   id="svg4076"
   sodipodi:docname="repeat.svg"
   inkscape:version="0.92.5 (2060ec1f9f, 2020-04-08)">
  <metadata
     id="metadata4080">
    <rdf:RDF>
      <cc:Work
         rdf:about="">
        <dc:format>image/svg+xml</dc:format>
        <dc:type
           rdf:resource="http://purl.org/dc/dcmitype/StillImage" />
        <dc:title />
      </cc:Work>
    </rdf:RDF>
  </metadata>
  <sodipodi:namedview
     pagecolor="#ffffff"
     bordercolor="#666666"
     borderopacity="1"
     objecttolerance="10"
     gridtolerance="10"
     guidetolerance="10"
     inkscape:pageopacity="0"
     inkscape:pageshadow="2"
     inkscape:window-width="1366"
     inkscape:window-height="705"
     id="namedview4078"
     showgrid="false"
     inkscape:zoom="1.8526198"
     inkscape:cx="151.16502"
     inkscape:cy="129.11148"
     inkscape:window-x="-8"
     inkscape:window-y="-8"
     inkscape:window-maximized="1"
     inkscape:current-layer="svg4076"
     inkscape:snap-grids="true" />
  <defs
     id="defs4072">
    <style
       type="text/css"
       id="style4070" />
  </defs>
  <path
     d="m 1240.7611,916.51329 -195.3395,316.72941 c -18.1844,29.4814 -47.66409,29.4814 -65.84849,0 L 784.23159,916.51329 c -18.18443,-29.48479 -18.18443,-77.28706 0,-106.76869 l 20.99756,-34.04606 c 18.55111,-30.07932 48.76019,-29.38098 66.77585,1.54769 l 55.37036,134.61141 V 281.86112 h -371.8656 c -78.30233,-10.77713 -52.13525,-177.63993 0,-167.26016 h 472.50944 c 25.716,0 69.6013,56.84046 69.6013,98.53692 v 698.71976 l 55.3692,-134.61141 c 18.0137,-30.92553 48.2228,-31.62701 66.7758,-1.54769 l 20.9976,34.04606 c 18.1825,29.48163 18.1825,77.28706 0,106.76869 z M 698.97256,992.36864 H 344.94464 V 370.04925 l 63.05177,134.6114 c 18.01564,30.92552 48.22279,31.62701 66.77584,1.54456 l 20.99562,-34.04293 c 18.18443,-29.48478 18.18443,-77.28706 0,-106.76869 L 300.4283,48.667339 c -18.18442,-29.484785 -47.66599,-29.484785 -65.84847,0 L 39.238324,365.39671 c -18.184432,29.4848 -18.184432,77.28708 0,106.76869 l 20.995618,34.04293 c 18.551107,30.07933 48.760208,29.38098 66.775828,-1.54454 l 63.04975,-134.61454 v 698.72295 c 0,41.6965 36.20704,90.8566 61.92289,90.8566 h 472.50614 c 84.44801,-32.2835 68.5915,-164.55591 -25.51599,-167.26016 z"
     fill=""
     p-id="14842"
     id="path4074"
     inkscape:connector-curvature="0"
     style="stroke-width:1.23520803"
     sodipodi:nodetypes="cccccscccccsscccsccccccsscccccsccsscc" />
  <circle
     id="path18"
     cx="732.36829"
     cy="1075.4896"
     style="stroke-width:5.11999989"
     r="83.609596" />
  <circle
     id="path18-8"
     cx="561.02179"
     cy="199.41135"
     style="stroke-width:5.11999989"
     r="83.609596" />
</svg>
