<?xml version="1.0" standalone="no"?><!DOCTYPE svg PUBLIC "-//W3C//DTD SVG 1.1//EN" "http://www.w3.org/Graphics/SVG/1.1/DTD/svg11.dtd"><svg t="1588767964428" class="icon" viewBox="0 0 1024 1024" version="1.1" xmlns="http://www.w3.org/2000/svg" p-id="14841" data-spm-anchor-id="a313x.7781069.0.i2" xmlns:xlink="http://www.w3.org/1999/xlink" width="200" height="200"><defs><style type="text/css"></style></defs><path d="M498.858272 422.863254c0 63.430688-55.428854 115.431612-123.431447 115.431612-68.000594 0-123.429447-52.000924-123.429447-115.431612 0-64.000676 55.428854-115.429613 123.429447-115.429613 68.000594 0 123.431447 51.428936 123.431447 115.429613z m508.577481 100.001931c-36.571244 45.145066-106.285802 100.57392-212.573604 144.003022C907.435821 1050.304276 519.999835 1111.447011 526.285705 914.873077c0 3.427929-0.571988-105.715813-0.571989-186.860135-8.569823-1.715965-17.141645-3.999917-27.427432-6.28587 0 81.71431-0.571988 196.573934-0.571989 193.146005C504.000165 1111.447011 116.564179 1050.304276 229.137851 666.868207c-106.287802-43.429102-176.00236-98.857955-212.575604-144.003022-18.285622-27.427433 1.715965-56.57283 32.001339-35.429267 3.999917 2.855941 8.569823 5.713882 12.56974 8.569823V99.429943C61.135326 44.573078 102.278475 0 153.137423 0h718.299143c50.856948 0 92.002097 44.573078 92.002097 99.429943v396.577798l11.999751-8.569823c30.285374-21.145563 50.28496 7.999835 31.997339 35.427267z m-93.142074-378.292175c0-65.714641-21.143563-91.430109-81.71631-91.430109H197.138512c-63.430688 0-81.144322 21.715551-81.144321 91.430109v384.578045c135.431199 70.858534 251.434799 58.286794 314.863487 56.000842 26.857444-0.571988 44.00109 4.571905 54.286877 15.429681 3.37793 3.37393 20.045585 18.891609 40.573161 34.285291 2.285953-31.42935 20.001586-51.428936 67.430606-49.714972 64.572664 2.855941 183.432206 15.429681 321.147357-59.430771V144.57301zM662.288891 307.433641c-68.002593 0-123.429447 51.428936-123.429447 115.429613 0 63.430688 55.428854 115.431612 123.429447 115.431612 68.572582 0 123.429447-52.000924 123.429448-115.431612 0-64.000676-54.856865-115.429613-123.429448-115.429613z" fill="" p-id="14842" data-spm-anchor-id="a313x.7781069.0.i0" class=""></path></svg>