<?xml version="1.0" encoding="UTF-8" standalone="no"?>
<svg
   xmlns:dc="http://purl.org/dc/elements/1.1/"
   xmlns:cc="http://creativecommons.org/ns#"
   xmlns:rdf="http://www.w3.org/1999/02/22-rdf-syntax-ns#"
   xmlns:svg="http://www.w3.org/2000/svg"
   xmlns="http://www.w3.org/2000/svg"
   xmlns:sodipodi="http://sodipodi.sourceforge.net/DTD/sodipodi-0.dtd"
   xmlns:inkscape="http://www.inkscape.org/namespaces/inkscape"
   t="1616594246495"
   class="icon"
   viewBox="0 0 1024 1024"
   version="1.1"
   p-id="15376"
   width="200"
   height="200"
   id="svg1460"
   sodipodi:docname="settings.svg"
   inkscape:version="1.0.2-2 (e86c870879, 2021-01-15)">
  <metadata
     id="metadata1464">
    <rdf:RDF>
      <cc:Work
         rdf:about="">
        <dc:format>image/svg+xml</dc:format>
        <dc:type
           rdf:resource="http://purl.org/dc/dcmitype/StillImage" />
      </cc:Work>
    </rdf:RDF>
  </metadata>
  <sodipodi:namedview
     pagecolor="#ffffff"
     bordercolor="#666666"
     borderopacity="1"
     objecttolerance="10"
     gridtolerance="10"
     guidetolerance="10"
     inkscape:pageopacity="0"
     inkscape:pageshadow="2"
     inkscape:window-width="2560"
     inkscape:window-height="1361"
     id="namedview1462"
     showgrid="false"
     inkscape:zoom="5.04"
     inkscape:cx="100"
     inkscape:cy="100"
     inkscape:window-x="-9"
     inkscape:window-y="145"
     inkscape:window-maximized="1"
     inkscape:current-layer="svg1460"
     inkscape:document-rotation="0" />
  <defs
     id="defs1456">
    <style
       type="text/css"
       id="style1454" />
  </defs>
  <path
     d="m 222.6858,171.47051 a 433.58644,456.35374 0 0 1 153.73005,-93.554797 173.30436,182.40446 0 0 0 135.58799,68.612947 173.30436,182.40446 0 0 0 135.58798,-68.612947 433.58644,456.35374 0 0 1 153.73005,93.554797 173.30436,182.40446 0 0 0 11.37134,157.78237 173.30436,182.40446 0 0 0 124.26005,89.30646 435.88674,458.77483 0 0 1 0,186.83551 c -50.34637,8.13124 -96.78656,39.28571 -124.26005,89.30648 A 173.30436,182.40446 0 0 0 801.32187,852.52936 433.58644,456.35374 0 0 1 647.59182,946.03848 173.30436,182.40446 0 0 0 512.00384,877.47123 173.30436,182.40446 0 0 0 376.41585,946.08416 433.58644,456.35374 0 0 1 222.6858,852.57504 173.30436,182.40446 0 0 0 211.31446,694.747 173.30436,182.40446 0 0 0 87.054413,605.48622 a 435.88674,458.77483 0 0 1 0,-186.8812 A 173.30436,182.40446 0 0 0 211.31446,329.29856 173.30436,182.40446 0 0 0 222.6858,171.51619 Z M 577.10691,630.65648 A 130.20613,137.04317 0 1 0 446.90077,393.29771 130.20613,137.04317 0 0 0 577.10691,630.65648 Z"
     p-id="15377"
     fill="#000000"
     id="path1458"
     style="stroke:#ffffff;stroke-width:53.4324;stroke-linecap:round;stroke-linejoin:round;stroke-miterlimit:4;stroke-dasharray:none;stroke-opacity:1;paint-order:stroke fill markers" />
</svg>
