<?xml version="1.0" standalone="no"?><!DOCTYPE svg PUBLIC "-//W3C//DTD SVG 1.1//EN" "http://www.w3.org/Graphics/SVG/1.1/DTD/svg11.dtd"><svg t="1588768402582" class="icon" viewBox="0 0 1024 1024" version="1.1" xmlns="http://www.w3.org/2000/svg" p-id="14965" xmlns:xlink="http://www.w3.org/1999/xlink" width="200" height="200"><defs><style type="text/css"></style></defs><path d="M936 384H688c-26.6 0-48-21.4-48-48V88c0-13.2 10.8-24 24-24h80c13.2 0 24 10.8 24 24v168h168c13.2 0 24 10.8 24 24v80c0 13.2-10.8 24-24 24z m-552-48V88c0-13.2-10.8-24-24-24h-80c-13.2 0-24 10.8-24 24v168H88c-13.2 0-24 10.8-24 24v80c0 13.2 10.8 24 24 24h248c26.6 0 48-21.4 48-48z m0 600V688c0-26.6-21.4-48-48-48H88c-13.2 0-24 10.8-24 24v80c0 13.2 10.8 24 24 24h168v168c0 13.2 10.8 24 24 24h80c13.2 0 24-10.8 24-24z m384 0v-168h168c13.2 0 24-10.8 24-24v-80c0-13.2-10.8-24-24-24H688c-26.6 0-48 21.4-48 48v248c0 13.2 10.8 24 24 24h80c13.2 0 24-10.8 24-24z" fill="" p-id="14966"></path></svg>