<?xml version="1.0" standalone="no"?><!DOCTYPE svg PUBLIC "-//W3C//DTD SVG 1.1//EN" "http://www.w3.org/Graphics/SVG/1.1/DTD/svg11.dtd"><svg t="1587067361776" class="icon" viewBox="0 0 1024 1024" version="1.1" xmlns="http://www.w3.org/2000/svg" p-id="16679" xmlns:xlink="http://www.w3.org/1999/xlink" width="200" height="200"><defs><style type="text/css"></style></defs><path d="M992 768H320v-32c0-17.6-14.4-32-32-32h-64c-17.6 0-32 14.4-32 32v32H32c-17.6 0-32 14.4-32 32v64c0 17.6 14.4 32 32 32h160v32c0 17.6 14.4 32 32 32h64c17.6 0 32-14.4 32-32v-32h672c17.6 0 32-14.4 32-32v-64c0-17.6-14.4-32-32-32z m0-320h-160v-32c0-17.6-14.4-32-32-32h-64c-17.6 0-32 14.4-32 32v32H32c-17.6 0-32 14.4-32 32v64c0 17.6 14.4 32 32 32h672v32c0 17.6 14.4 32 32 32h64c17.6 0 32-14.4 32-32v-32h160c17.6 0 32-14.4 32-32v-64c0-17.6-14.4-32-32-32z m0-320H576V96c0-17.6-14.4-32-32-32h-64c-17.6 0-32 14.4-32 32v32H32C14.4 128 0 142.4 0 160v64c0 17.6 14.4 32 32 32h416v32c0 17.6 14.4 32 32 32h64c17.6 0 32-14.4 32-32v-32h416c17.6 0 32-14.4 32-32V160c0-17.6-14.4-32-32-32z" fill="" p-id="16680"></path></svg>