<?xml version="1.0" standalone="no"?><!DOCTYPE svg PUBLIC "-//W3C//DTD SVG 1.1//EN" "http://www.w3.org/Graphics/SVG/1.1/DTD/svg11.dtd"><svg t="1587067375252" class="icon" viewBox="0 0 1024 1024" version="1.1" xmlns="http://www.w3.org/2000/svg" p-id="16803" xmlns:xlink="http://www.w3.org/1999/xlink" width="200" height="200"><defs><style type="text/css"></style></defs><path d="M741.44 266.56C678.916 208.016 597.776 175.924 511.696 176c-154.916 0.136-288.656 106.356-325.582 253.7-2.688 10.726-12.244 18.3-23.302 18.3H48.206c-14.996 0-26.388-13.614-23.614-28.352C67.866 189.848 269.626 16 512 16c132.896 0 253.582 52.272 342.63 137.37L926.06 81.94C956.298 51.702 1008 73.118 1008 115.882V384c0 26.51-21.49 48-48 48H691.882c-42.764 0-64.18-51.702-33.942-81.942l83.5-83.498zM64 592h268.118c42.764 0 64.18 51.702 33.942 81.942l-83.5 83.5c62.524 58.546 143.67 90.638 229.752 90.56 154.836-0.14 288.63-106.288 325.574-253.698 2.688-10.726 12.244-18.3 23.302-18.3h114.608c14.996 0 26.388 13.614 23.614 28.352C956.134 834.152 754.374 1008 512 1008c-132.896 0-253.582-52.272-342.63-137.37L97.94 942.06C67.702 972.298 16 950.882 16 908.118V640c0-26.51 21.49-48 48-48z" fill="" p-id="16804"></path></svg>