<?xml version="1.0" encoding="UTF-8" standalone="no"?>
<svg
   xmlns:dc="http://purl.org/dc/elements/1.1/"
   xmlns:cc="http://creativecommons.org/ns#"
   xmlns:rdf="http://www.w3.org/1999/02/22-rdf-syntax-ns#"
   xmlns:svg="http://www.w3.org/2000/svg"
   xmlns="http://www.w3.org/2000/svg"
   xmlns:sodipodi="http://sodipodi.sourceforge.net/DTD/sodipodi-0.dtd"
   xmlns:inkscape="http://www.inkscape.org/namespaces/inkscape"
   t="1616321519896"
   class="icon"
   viewBox="0 0 1024 1024"
   version="1.1"
   p-id="14882"
   width="200"
   height="200"
   id="svg881"
   sodipodi:docname="undo.svg"
   inkscape:version="1.0.2-2 (e86c870879, 2021-01-15)">
  <metadata
     id="metadata885">
    <rdf:RDF>
      <cc:Work
         rdf:about="">
        <dc:format>image/svg+xml</dc:format>
        <dc:type
           rdf:resource="http://purl.org/dc/dcmitype/StillImage" />
      </cc:Work>
    </rdf:RDF>
  </metadata>
  <sodipodi:namedview
     pagecolor="#ffffff"
     bordercolor="#666666"
     borderopacity="1"
     objecttolerance="10"
     gridtolerance="10"
     guidetolerance="10"
     inkscape:pageopacity="0"
     inkscape:pageshadow="2"
     inkscape:window-width="2560"
     inkscape:window-height="1361"
     id="namedview883"
     showgrid="false"
     inkscape:zoom="3.685"
     inkscape:cx="100"
     inkscape:cy="100"
     inkscape:window-x="-9"
     inkscape:window-y="145"
     inkscape:window-maximized="1"
     inkscape:current-layer="svg881" />
  <defs
     id="defs877">
    <style
       type="text/css"
       id="style875" />
  </defs>
  <path
     d="M511.09 16c-132.538 0.238-252.876 52.466-341.72 137.37L97.942 81.942C67.702 51.702 16 73.118 16 115.882V384c0 26.51 21.49 48 48 48h268.118c42.764 0 64.18-51.702 33.942-81.942l-83.5-83.5c61.728-57.798 141.602-89.814 226.46-90.546 184.796-1.596 340.566 147.954 338.968 338.884C846.472 696.018 699.632 848 512 848c-82.254 0-159.994-29.356-221.26-83.112-9.486-8.322-23.812-7.816-32.736 1.106L178.68 845.318c-9.744 9.744-9.262 25.63 0.964 34.866C267.596 959.626 384.148 1008 512 1008c273.932 0 495.998-222.066 496-495.996C1008.002 238.386 784.708 15.51 511.09 16z"
     fill="#000000"
     p-id="14883"
     id="path879"
     style="stroke:#fffffd;stroke-opacity:1;stroke-width:51.2;stroke-miterlimit:4;stroke-dasharray:none;stroke-linejoin:round;stroke-linecap:round;paint-order:stroke fill markers" />
</svg>
