<?xml version="1.0" standalone="no"?><!DOCTYPE svg PUBLIC "-//W3C//DTD SVG 1.1//EN" "http://www.w3.org/Graphics/SVG/1.1/DTD/svg11.dtd"><svg t="1616321519896" class="icon" viewBox="0 0 1024 1024" version="1.1" xmlns="http://www.w3.org/2000/svg" p-id="14882" xmlns:xlink="http://www.w3.org/1999/xlink" width="200" height="200"><defs><style type="text/css"></style></defs><path d="M511.09 16c-132.538 0.238-252.876 52.466-341.72 137.37L97.942 81.942C67.702 51.702 16 73.118 16 115.882V384c0 26.51 21.49 48 48 48h268.118c42.764 0 64.18-51.702 33.942-81.942l-83.5-83.5c61.728-57.798 141.602-89.814 226.46-90.546 184.796-1.596 340.566 147.954 338.968 338.884C846.472 696.018 699.632 848 512 848c-82.254 0-159.994-29.356-221.26-83.112-9.486-8.322-23.812-7.816-32.736 1.106L178.68 845.318c-9.744 9.744-9.262 25.63 0.964 34.866C267.596 959.626 384.148 1008 512 1008c273.932 0 495.998-222.066 496-495.996C1008.002 238.386 784.708 15.51 511.09 16z" fill="#000000" p-id="14883"></path></svg>