<?xml version="1.0" standalone="no"?><!DOCTYPE svg PUBLIC "-//W3C//DTD SVG 1.1//EN" "http://www.w3.org/Graphics/SVG/1.1/DTD/svg11.dtd"><svg t="1587067199987" class="icon" viewBox="0 0 1024 1024" version="1.1" xmlns="http://www.w3.org/2000/svg" p-id="16059" xmlns:xlink="http://www.w3.org/1999/xlink" width="200" height="200"><defs><style type="text/css"></style></defs><path d="M640 176.034v671.928c0 42.876-51.886 63.996-81.942 33.942L380.118 704H176c-26.51 0-48-21.49-48-48V368c0-26.51 21.49-48 48-48h204.118l177.942-177.908c30.02-30.02 81.94-8.98 81.94 33.942zM896 512c0-67.434-34.372-128.7-91.944-163.888-30.158-18.428-69.55-8.926-87.984 21.232s-8.928 69.55 21.23 87.984C756.526 469.076 768 489.514 768 512a64.112 64.112 0 0 1-27.604 52.664c-29.048 20.138-36.272 60.012-16.134 89.06 20.14 29.05 60.016 36.272 89.06 16.134C865.092 633.966 896 574.956 896 512z" fill="" p-id="16060"></path></svg>