<?xml version="1.0" standalone="no"?><!DOCTYPE svg PUBLIC "-//W3C//DTD SVG 1.1//EN" "http://www.w3.org/Graphics/SVG/1.1/DTD/svg11.dtd"><svg t="1587067216400" class="icon" viewBox="0 0 1152 1024" version="1.1" xmlns="http://www.w3.org/2000/svg" p-id="16307" xmlns:xlink="http://www.w3.org/1999/xlink" width="225" height="200"><defs><style type="text/css"></style></defs><path d="M512 176.034v671.928c0 42.876-51.886 63.996-81.942 33.942L252.118 704H48c-26.51 0-48-21.49-48-48V368c0-26.51 21.49-48 48-48h204.118l177.942-177.908c30.02-30.02 81.94-8.98 81.94 33.942z m364.112-155.752C845.964 1.84 806.566 11.336 788.122 41.49c-18.442 30.154-8.946 69.548 21.208 87.99C937.934 208.126 1024 349.966 1024 512c0 146.862-72.154 284.584-193.014 368.412-29.044 20.144-36.258 60.02-16.114 89.064 20.152 29.056 60.032 36.252 89.062 16.114C1059.266 877.854 1152 700.812 1152 512c0-206.488-109.158-389.754-275.888-491.718zM960 512c0-137.094-72.3-259.554-183.914-327.802-30.152-18.44-69.548-8.942-87.988 21.214-18.44 30.156-8.942 69.548 21.214 87.988C786.134 340.376 832 422.096 832 512c0 83.928-41.24 162.638-110.316 210.552-29.042 20.146-36.256 60.02-16.112 89.064 12.432 17.92 32.37 27.53 52.644 27.53a63.724 63.724 0 0 0 36.42-11.418C898.182 755.906 960 637.876 960 512z m-192 0c0-67.434-34.372-128.7-91.944-163.888-30.158-18.428-69.55-8.926-87.984 21.232s-8.928 69.55 21.23 87.984C628.526 469.076 640 489.514 640 512a64.112 64.112 0 0 1-27.604 52.664c-29.048 20.138-36.272 60.012-16.134 89.06 20.14 29.05 60.016 36.272 89.06 16.134C737.092 633.966 768 574.956 768 512z" fill="" p-id="16308"></path></svg>