<?xml version="1.0" standalone="no"?><!DOCTYPE svg PUBLIC "-//W3C//DTD SVG 1.1//EN" "http://www.w3.org/Graphics/SVG/1.1/DTD/svg11.dtd"><svg t="1587067406215" class="icon" viewBox="0 0 1280 1024" version="1.1" xmlns="http://www.w3.org/2000/svg" p-id="17051" xmlns:xlink="http://www.w3.org/1999/xlink" width="250" height="200"><defs><style type="text/css"></style></defs><path d="M768 832c0 70.692-57.308 128-128 128s-128-57.308-128-128c0-70.692 57.308-128 128-128s128 57.308 128 128z m273.318-248.886c12.93-12.93 12.49-34.13-1.128-46.334-227.586-203.97-573.052-203.738-800.38 0-13.618 12.204-14.058 33.404-1.128 46.334l68.012 68.012c11.854 11.854 30.928 12.64 43.538 1.592 165.76-145.218 414.148-144.894 579.536 0 12.61 11.048 31.684 10.264 43.538-1.592l68.012-68.012z m224.22-227.436c12.77-12.77 12.508-33.632-0.7-45.946-351.536-327.72-898.268-327.6-1249.674 0-13.208 12.314-13.47 33.178-0.7 45.946l67.932 67.932c12.19 12.19 31.782 12.462 44.448 0.766 289.526-267.336 736.712-267.404 1026.312 0 12.666 11.696 32.258 11.424 44.448-0.766l67.934-67.932z" fill="" p-id="17052"></path></svg>