<?xml version="1.0" standalone="no"?><!DOCTYPE svg PUBLIC "-//W3C//DTD SVG 1.1//EN" "http://www.w3.org/Graphics/SVG/1.1/DTD/svg11.dtd"><svg t="1587201221320" class="icon" viewBox="0 0 1024 1024" version="1.1" xmlns="http://www.w3.org/2000/svg" p-id="14965" xmlns:xlink="http://www.w3.org/1999/xlink" width="200" height="200"><defs><style type="text/css"></style></defs><path d="M1015.460042 218.198935c-4.479978-18.059912-27.079868-24.179882-40.239804-11.019947l-148.719274 148.719274-135.759337-22.619889-22.619889-135.759337 148.719274-148.719274c13.239935-13.239935 6.859967-35.799825-11.319945-40.319803-94.759537-23.479885-199.099028 1.819991-273.158666 75.859629-79.279613 79.279613-101.099506 194.199052-68.099668 294.398563L37.484817 805.516067c-49.979756 49.979756-49.979756 131.01936 0 180.999116 49.979756 49.979756 131.01936 49.979756 180.999116 0l426.417918-426.417918c100.239511 33.419837 214.93895 11.359945 294.738561-68.439666 74.139638-74.139638 99.399515-178.639128 75.81963-273.458664zM128.004375 943.995391c-26.499871 0-47.999766-21.499895-47.999766-47.999766 0-26.519871 21.499895-47.999766 47.999766-47.999766s47.999766 21.479895 47.999766 47.999766c0 26.499871-21.499895 47.999766-47.999766 47.999766z" fill="" p-id="14966"></path></svg>